<?xml version="1.0" standalone="no"?>
<!DOCTYPE svg PUBLIC "-//W3C//DTD SVG 20010904//EN"
 "http://www.w3.org/TR/2001/REC-SVG-20010904/DTD/svg10.dtd">
<svg version="1.0" xmlns="http://www.w3.org/2000/svg"
 width="558.000000pt" height="558.000000pt" viewBox="0 0 558.000000 558.000000"
 preserveAspectRatio="xMidYMid meet">
<metadata>
Created by potrace 1.11, written by Peter Selinger 2001-2013
</metadata>
<g transform="translate(0.000000,558.000000) scale(0.100000,-0.100000)"
fill="#000000" stroke="none">
<path d="M0 2790 l0 -2790 2790 0 2790 0 0 2790 0 2790 -2790 0 -2790 0 0
-2790z m2870 1895 c91 -42 170 -82 177 -88 11 -12 402 -1071 411 -1114 l4 -23
-201 0 -202 0 -13 33 c-19 45 -478 1298 -484 1320 -5 19 -15 24 308 -128z
m-109 -593 l253 -693 745 7 c457 5 742 4 738 -2 -3 -5 -271 -207 -596 -449
-324 -242 -590 -444 -591 -450 0 -5 102 -342 226 -748 124 -406 224 -740 222
-743 -2 -2 -278 197 -614 443 -335 245 -616 450 -625 456 -12 7 -147 -84 -624
-422 -335 -237 -610 -430 -611 -428 -2 1 92 315 207 697 115 382 212 707 215
721 6 25 -29 52 -595 470 l-601 444 103 3 c56 2 392 6 745 10 l644 7 239 685
c132 377 242 692 245 700 5 13 6 13 13 0 5 -8 122 -327 262 -708z m2049 -847
c102 -54 204 -109 228 -122 l42 -24 -587 -426 c-324 -235 -589 -427 -591 -429
-2 -1 100 -338 227 -748 127 -410 231 -748 231 -752 0 -3 -113 52 -251 123
-164 83 -254 135 -260 148 -5 11 -106 343 -225 739 -180 598 -213 721 -202
732 7 7 274 206 592 443 434 322 583 428 595 422 9 -5 99 -52 201 -106z
m-2105 -1557 c107 -79 193 -147 191 -153 -3 -13 -1064 -755 -1079 -755 -18 0
-452 226 -450 234 3 9 1125 814 1137 815 4 1 95 -63 201 -141z"/>
</g>
</svg>
